<?xml version="1.0" encoding="utf-8"?>
<!-- Generator: Adobe Illustrator 23.0.1, SVG Export Plug-In . SVG Version: 6.00 Build 0)  -->
<svg version="1.1" id="Layer_1" xmlns="http://www.w3.org/2000/svg" xmlns:xlink="http://www.w3.org/1999/xlink" x="0px" y="0px"
	 viewBox="0 0 576 211" style="enable-background:new 0 0 576 211;" xml:space="preserve">
<style type="text/css">
	.st0{fill:#FFFFFF;}
	.st1{fill:#80BC00;}
	.st2{fill-rule:evenodd;clip-rule:evenodd;fill:#80BC00;}
</style>
<g>
	<g>
		<g>
			<path class="st0" d="M416.05,10.33c-19.36,0-37.36,5.85-52.32,15.87l-0.13,0.19c12.93-7.26,32.83-13.89,48.72-13.89
				c39.93,0,90.72,29.44,90.72,91.96c0,59.8-44.72,91.96-89.47,91.96c-15.57,0-36.43-6.46-49.18-13.46l-0.32-0.02
				c14.89,9.89,32.77,15.64,51.98,15.64c51.99,0,94.13-42.14,94.13-94.13C510.17,52.48,468.03,10.33,416.05,10.33z"/>
		</g>
	</g>
	<g>
		<path class="st0" d="M74.92,54.8v5.73c-8.22-4.37-16.28-6.55-24.17-6.55c-8.41,0-15.45,2.86-21.12,8.59
			c-5.66,5.73-8.49,12.88-8.49,21.46c0,8.67,2.85,15.81,8.54,21.41c5.7,5.6,12.96,8.4,21.8,8.4c7.38,0,15.42-2.31,24.13-6.94v5.44
			c-8.03,4.24-16.04,6.36-24.03,6.36c-10.32,0-18.92-3.31-25.8-9.93c-6.88-6.62-10.32-14.86-10.32-24.73
			c0-9.93,3.51-18.23,10.53-24.9c7.02-6.67,15.39-10,25.1-10C58.72,49.12,66.67,51.02,74.92,54.8z"/>
		<path class="st0" d="M98.92,81.5h19.36v4.42H98.92V81.5z M91.09,113.44h32.52v4.37H85.84V50h36.99v4.37H91.09V113.44z"/>
		<path class="st0" d="M195.5,50v67.81h-4.31l-51.56-59.27v59.27h-5.24V50h4.44l51.43,59.27V50H195.5z"/>
		<path class="st0" d="M259.82,50v4.37h-25.44v63.44h-5.29V54.36h-25.44V50H259.82z"/>
		<path class="st0" d="M298.05,89.99l-14.61-31.94l-14.56,31.94l-1.99,4.37l-10.69,23.45h-5.5l31.35-68.3h2.88l31.35,68.3h-5.5
			l-10.73-23.45L298.05,89.99z"/>
		<path class="st0" d="M372.48,50h5.24v36.99c0,10.13-2.64,17.94-7.91,23.45c-5.28,5.5-12.1,8.25-20.48,8.25
			c-8.35,0-15.16-2.72-20.44-8.16c-5.28-5.44-7.91-12.88-7.91-22.33V50h5.29V88c0,8.09,2.14,14.42,6.43,18.98
			c4.29,4.56,9.83,6.84,16.63,6.84c6.86,0,12.43-2.31,16.72-6.92c4.29-4.61,6.43-11.16,6.43-19.64V50z"/>
		<path class="st0" d="M391.9,50h17.38c7.28,0,12.85,1.58,16.7,4.73c3.85,3.16,5.78,7.42,5.78,12.79c0,7.83-4.3,13.33-12.91,16.5
			c2.23,1.07,5.24,4.51,9.03,10.34l15.34,23.45H437l-11.81-18.59c-3.95-6.22-7.02-10.09-9.22-11.63c-2.2-1.54-5.42-2.31-9.66-2.31
			h-9.17v32.52h-5.24V50z M397.14,54.36v26.55h11.26c5.73,0,10.1-1.16,13.13-3.47c3.03-2.31,4.54-5.59,4.54-9.83
			c0-4.17-1.54-7.43-4.61-9.76c-3.08-2.33-7.49-3.5-13.25-3.5H397.14z"/>
		<path class="st0" d="M454.04,50v67.81h-5.24V50H454.04z"/>
	</g>
</g>
<g>
	<g>
		<g>
			<g>
				<path class="st1" d="M58.64,170.31h-2.47v-11.25H40.95v11.25h-2.46v-24.36h2.46v10.96h15.21v-10.96h2.47V170.31z"/>
			</g>
		</g>
	</g>
	<g>
		<g>
			<g>
				<path class="st1" d="M83.24,170.31H69.4v-24.36h13.57v2.15H71.85v8.88h10.82v2.17H71.85v9.01h11.38V170.31z"/>
			</g>
		</g>
	</g>
	<g>
		<g>
			<g>
				<path class="st1" d="M113.4,170.31h-2.61l-3.75-8.21H95.83l-3.74,8.21h-2.61l11.26-24.53h1.41L113.4,170.31z M96.81,159.96h9.24
					l-4.63-10.12L96.81,159.96z"/>
			</g>
		</g>
	</g>
	<g>
		<g>
			<g>
				<path class="st1" d="M135.52,170.31h-14.2v-24.36h2.46v22.21h11.74V170.31z"/>
			</g>
		</g>
	</g>
	<g>
		<g>
			<g>
				<path class="st1" d="M149.47,170.31h-2.47v-22.21h-8.9v-2.15h20.28v2.15h-8.9V170.31z"/>
			</g>
		</g>
	</g>
	<g>
		<g>
			<g>
				<path class="st1" d="M186.64,170.31h-2.47v-11.25h-15.21v11.25h-2.46v-24.36h2.46v10.96h15.21v-10.96h2.47V170.31z"/>
			</g>
		</g>
	</g>
	<g>
		<g>
			<g>
				<path class="st1" d="M218.44,170.62c-2.02,0-4.13-0.71-6.25-2.12l-0.14-0.09v-2.94l0.49,0.36c2.23,1.64,4.18,2.47,5.8,2.47
					c1.32,0,2.44-0.43,3.35-1.28c0.91-0.86,1.35-1.88,1.35-3.13c0-0.93-0.28-1.79-0.84-2.54c-0.56-0.76-1.74-1.49-3.51-2.17
					c-1.84-0.71-3.17-1.28-3.97-1.72c-0.83-0.45-1.54-1.11-2.11-1.94c-0.58-0.85-0.88-1.94-0.88-3.26c0-1.83,0.71-3.4,2.11-4.69
					c1.39-1.28,3.08-1.92,5.04-1.92c1.89,0,3.79,0.52,5.64,1.53l0.16,0.09v2.75l-0.47-0.27c-2-1.18-3.74-1.78-5.16-1.78
					c-1.34,0-2.47,0.41-3.37,1.22c-0.9,0.81-1.33,1.79-1.33,2.99c0,0.86,0.26,1.6,0.79,2.29c0.53,0.69,1.68,1.37,3.41,2.02
					c1.8,0.68,3.14,1.26,3.98,1.72c0.87,0.48,1.61,1.17,2.22,2.07c0.61,0.91,0.92,2.09,0.92,3.52c0,1.9-0.71,3.54-2.1,4.85
					C222.16,169.96,220.44,170.62,218.44,170.62z"/>
			</g>
		</g>
	</g>
	<g>
		<g>
			<g>
				<path class="st1" d="M246.91,170.62c-3.56,0-6.63-1.22-9.1-3.63c-2.48-2.41-3.74-5.39-3.74-8.84c0-3.47,1.26-6.45,3.74-8.86
					c2.48-2.41,5.54-3.63,9.1-3.63c3.58,0,6.65,1.22,9.14,3.63c2.49,2.41,3.75,5.39,3.75,8.86c0,3.46-1.26,6.43-3.75,8.85
					C253.56,169.4,250.49,170.62,246.91,170.62z M246.98,147.97c-2.87,0-5.33,0.99-7.31,2.94c-1.98,1.95-2.99,4.38-2.99,7.23
					c0,2.83,1.01,5.26,2.99,7.21c1.98,1.95,4.44,2.94,7.31,2.94c2.85,0,5.3-0.99,7.26-2.94c1.96-1.95,2.96-4.38,2.96-7.21
					c0-2.85-0.99-5.28-2.96-7.23C252.28,148.96,249.83,147.97,246.98,147.97z"/>
			</g>
		</g>
	</g>
	<g>
		<g>
			<g>
				<path class="st1" d="M283.74,170.31h-14.2v-24.36H272v22.21h11.74V170.31z"/>
			</g>
		</g>
	</g>
	<g>
		<g>
			<g>
				<path class="st1" d="M301.43,170.62c-3,0-5.48-0.99-7.38-2.95c-1.9-1.95-2.86-4.66-2.86-8.03v-13.68h2.47v13.61
					c0,2.74,0.73,4.9,2.17,6.43c1.43,1.52,3.31,2.3,5.59,2.3c2.3,0,4.19-0.78,5.63-2.32c1.44-1.55,2.17-3.79,2.17-6.66v-13.36h2.46
					v13.26c0,3.61-0.96,6.44-2.86,8.42C306.92,169.61,304.43,170.62,301.43,170.62z"/>
			</g>
		</g>
	</g>
	<g>
		<g>
			<g>
				<path class="st1" d="M330.62,170.31h-2.47v-22.21h-8.9v-2.15h20.28v2.15h-8.9V170.31z"/>
			</g>
		</g>
	</g>
	<g>
		<g>
			<g>
				<path class="st1" d="M350.07,170.31h-2.46v-24.36h2.46V170.31z"/>
			</g>
		</g>
	</g>
	<g>
		<g>
			<g>
				<path class="st1" d="M372.59,170.62c-3.56,0-6.63-1.22-9.1-3.63c-2.48-2.41-3.74-5.39-3.74-8.85c0-3.47,1.26-6.45,3.74-8.86
					c2.48-2.41,5.54-3.63,9.1-3.63c3.58,0,6.65,1.22,9.14,3.63c2.49,2.41,3.75,5.39,3.75,8.86c0,3.46-1.26,6.43-3.75,8.85
					C379.24,169.4,376.17,170.62,372.59,170.62z M372.66,147.97c-2.87,0-5.33,0.99-7.31,2.94c-1.98,1.95-2.99,4.38-2.99,7.23
					c0,2.83,1.01,5.26,2.99,7.21c1.98,1.95,4.44,2.94,7.31,2.94c2.85,0,5.3-0.99,7.26-2.94c1.96-1.95,2.96-4.38,2.96-7.21
					c0-2.85-0.99-5.28-2.96-7.23C377.95,148.96,375.51,147.97,372.66,147.97z"/>
			</g>
		</g>
	</g>
	<g>
		<g>
			<g>
				<path class="st1" d="M417.2,170.31h-1.96l-0.09-0.11l-17.5-20.12v20.23h-2.46v-24.36h2.01l0.09,0.11l17.46,20.12v-20.22h2.46
					V170.31z"/>
			</g>
		</g>
	</g>
	<g>
		<g>
			<g>
				<path class="st1" d="M433.46,170.62c-2.02,0-4.13-0.71-6.25-2.12l-0.14-0.09v-2.94l0.49,0.36c2.23,1.64,4.18,2.47,5.8,2.47
					c1.32,0,2.44-0.43,3.35-1.28c0.91-0.86,1.35-1.88,1.35-3.13c0-0.93-0.28-1.79-0.84-2.54c-0.56-0.76-1.74-1.49-3.51-2.17
					c-1.84-0.71-3.17-1.28-3.97-1.72c-0.83-0.45-1.54-1.11-2.11-1.94c-0.58-0.85-0.88-1.94-0.88-3.26c0-1.83,0.71-3.4,2.11-4.69
					c1.39-1.28,3.08-1.92,5.04-1.92c1.89,0,3.79,0.52,5.64,1.53l0.16,0.09v2.75l-0.47-0.27c-2-1.18-3.74-1.78-5.16-1.78
					c-1.34,0-2.47,0.41-3.37,1.22c-0.9,0.81-1.33,1.79-1.33,2.99c0,0.86,0.26,1.6,0.79,2.29c0.53,0.69,1.68,1.37,3.41,2.02
					c1.81,0.68,3.14,1.26,3.98,1.72c0.87,0.48,1.61,1.17,2.22,2.07c0.61,0.91,0.92,2.09,0.92,3.52c0,1.9-0.71,3.54-2.1,4.85
					C437.17,169.96,435.46,170.62,433.46,170.62z"/>
			</g>
		</g>
	</g>
</g>
<g>
	<polygon class="st1" points="540.95,32.32 544.56,49.72 563.37,49.89 546.56,60.85 548.24,81.11 534.77,68.02 516.79,80.96 
		525.49,60.75 512.49,49.65 531.57,49.48 	"/>
	<g>
		<g>
			<path class="st2" d="M534.15,73.11c-2.9,22.13-40.79,45.57-117.41,56.39c-70.72,9.98-133.15,0.56-139.73-23.06
				c-2.51-9,3.47-18.62,15.73-27.7c-14.65,9.44-22.45,19.89-20.04,29.8c5.95,24.48,70.22,36.85,143.54,27.63
				C489.58,126.95,540.1,97.59,534.15,73.11z"/>
		</g>
	</g>
</g>
</svg>
