<?xml version="1.0" encoding="utf-8"?>
<!-- Generator: Adobe Illustrator 23.0.1, SVG Export Plug-In . SVG Version: 6.00 Build 0)  -->
<svg version="1.1" id="Layer_1" xmlns="http://www.w3.org/2000/svg" xmlns:xlink="http://www.w3.org/1999/xlink" x="0px" y="0px"
	 viewBox="0 0 216 216" style="enable-background:new 0 0 216 216;" xml:space="preserve">
<style type="text/css">
	.st0{fill:#FFFFFF;}
</style>
<g>
	<rect x="72.03" y="113.45" class="st0" width="7.27" height="7.13"/>
	<rect x="72.03" y="126.82" class="st0" width="7.27" height="7.13"/>
	<rect x="72.03" y="86.72" class="st0" width="7.27" height="7.13"/>
	<rect x="72.03" y="100.09" class="st0" width="7.27" height="7.13"/>
	<rect x="116.61" y="89.45" class="st0" width="4.32" height="9.56"/>
	<rect x="110.22" y="75.91" class="st0" width="4.32" height="9.56"/>
	<rect x="110.22" y="89.45" class="st0" width="4.32" height="9.56"/>
	<rect x="116.61" y="75.91" class="st0" width="4.32" height="9.56"/>
	<rect x="116.61" y="116.54" class="st0" width="4.32" height="9.56"/>
	<rect x="116.61" y="102.99" class="st0" width="4.32" height="9.56"/>
	<rect x="129.6" y="134.15" class="st0" width="7.96" height="6.62"/>
	<rect x="110.22" y="102.99" class="st0" width="4.32" height="9.56"/>
	<rect x="97.69" y="116.54" class="st0" width="4.32" height="9.56"/>
	<rect x="97.69" y="89.45" class="st0" width="4.32" height="9.56"/>
	<rect x="97.69" y="102.99" class="st0" width="4.32" height="9.56"/>
	<rect x="104.08" y="89.45" class="st0" width="4.33" height="9.56"/>
	<rect x="104.08" y="102.99" class="st0" width="4.33" height="9.56"/>
	<rect x="104.08" y="116.54" class="st0" width="4.33" height="9.56"/>
	<rect x="110.22" y="116.54" class="st0" width="4.32" height="9.56"/>
	<polygon class="st0" points="101.95,133.49 99.83,133.49 99.83,135.61 97.71,135.61 97.71,137.73 99.83,137.73 99.83,139.85 
		101.95,139.85 101.95,137.73 104.08,137.73 104.08,135.61 101.95,135.61 	"/>
	<rect x="97.69" y="75.91" class="st0" width="4.32" height="9.56"/>
	<rect x="104.08" y="75.91" class="st0" width="4.33" height="9.56"/>
	<path class="st0" d="M107.46,0.17C47.86,0.17-0.45,48.48-0.45,108.08S47.86,216,107.46,216s107.92-48.32,107.92-107.92
		S167.06,0.17,107.46,0.17z M169.38,78.64c-0.09-0.47-0.44-2.64,0.57-3.89c0.53-0.66,1.36-0.95,2.45-0.86l0.13,0.01
		c0.13-0.01,0.26-0.01,0.38-0.01c0.74,0,1.38,0.15,1.9,0.44c1.46,0.5,1.49,2.01,1.49,2.02l0.15,2.28c0.15,0.03,0.35,0.14,0.35,0.43
		c0,0.37-0.18,1.43-0.35,1.95c-0.02,0.07-0.09,0.27-0.24,0.27c-0.06,0-0.11-0.03-0.15-0.07c-0.04,0.2-0.12,0.53-0.23,0.86
		c-0.15,0.45-0.3,0.77-0.34,0.86c0.27,0.98,1.41,1.23,2.73,1.52c0.44,0.1,0.89,0.19,1.33,0.33c0.75,0.22,1.24,0.89,1.42,1.93
		c0.14,0.77,0.05,1.47,0.05,1.5l-0.01,0.07l-16.18,0.01l-0.01-0.07c0-0.03-0.09-0.72,0.05-1.5c0.18-1.04,0.67-1.71,1.42-1.93
		c0.44-0.13,0.89-0.23,1.33-0.33c1.33-0.29,2.47-0.54,2.74-1.52c-0.05-0.09-0.19-0.41-0.34-0.86c-0.11-0.33-0.18-0.65-0.23-0.86
		c-0.04,0.04-0.09,0.07-0.15,0.07c-0.15,0-0.22-0.2-0.24-0.27c-0.18-0.53-0.36-1.58-0.36-1.95
		C169.07,78.78,169.24,78.67,169.38,78.64z M150.76,108.4v-0.62h14.63v0.62H150.76z M161.14,129.87l-0.24,0.58l-10.49-4.32
		l0.28-0.56L161.14,129.87z M152.65,64.67c0.18-1.04,0.67-1.71,1.42-1.93c0.44-0.13,0.89-0.23,1.33-0.33
		c1.32-0.29,2.47-0.54,2.73-1.52c-0.05-0.09-0.19-0.41-0.34-0.86c-0.11-0.33-0.18-0.65-0.23-0.86c-0.04,0.04-0.09,0.07-0.15,0.07
		c-0.15,0-0.22-0.2-0.24-0.27c-0.18-0.53-0.35-1.58-0.35-1.95c0-0.29,0.2-0.4,0.35-0.43l0.14-2.28c0-0.02,0.03-1.52,1.49-2.02
		c0.52-0.29,1.16-0.44,1.9-0.44c0.13,0,0.26,0,0.38,0.01l0.13-0.01c1.09-0.09,1.91,0.19,2.45,0.86c1.01,1.25,0.66,3.42,0.57,3.89
		c0.14,0.03,0.31,0.15,0.31,0.42c0,0.37-0.18,1.43-0.35,1.95c-0.02,0.07-0.09,0.27-0.24,0.27c-0.06,0-0.11-0.03-0.15-0.07
		c-0.04,0.2-0.12,0.53-0.23,0.86c-0.15,0.45-0.3,0.76-0.34,0.86c0.27,0.98,1.41,1.23,2.74,1.52c0.44,0.1,0.89,0.19,1.33,0.33
		c0.75,0.22,1.24,0.89,1.42,1.93c0.13,0.77,0.05,1.47,0.05,1.5l-0.01,0.07h-16.18l-0.01-0.07C152.6,66.13,152.51,65.44,152.65,64.67
		z M160.82,85.53l0.24,0.58l-11.01,4.58l-0.26-0.57L160.82,85.53z M148.64,67.34L136.8,79.19c-0.15-0.15-0.29-0.29-0.44-0.44
		L148.2,66.9L148.64,67.34z M126.43,127.52v-3.88h17.26v-2.58h-17.26v-3.88h17.26v-2.58h-17.26v-3.88h17.26v-2.58h-17.26v-3.88
		h17.26v-2.58h-17.26v-3.88h17.26v-2.58h-17.26v-4.97h20.9v54.26h-20.9V130.1h17.26v-2.58H126.43z M130.57,48.41
		c0.18-1.04,0.67-1.71,1.42-1.94c0.44-0.13,0.89-0.23,1.33-0.33c1.32-0.29,2.47-0.54,2.73-1.53c-0.05-0.09-0.19-0.41-0.34-0.86
		c-0.11-0.32-0.19-0.65-0.23-0.86c-0.04,0.04-0.09,0.07-0.15,0.07c-0.15,0-0.22-0.2-0.24-0.27c-0.18-0.53-0.36-1.58-0.36-1.95
		c0-0.29,0.2-0.4,0.35-0.43l0.14-2.28c0-0.02,0.03-1.52,1.48-2.03c0.52-0.29,1.16-0.44,1.9-0.44c0.13,0,0.26,0,0.38,0.01l0.13-0.01
		c1.09-0.1,1.92,0.19,2.45,0.85c1.01,1.25,0.67,3.41,0.58,3.89c0.14,0.03,0.31,0.15,0.31,0.42c0,0.37-0.17,1.43-0.35,1.96
		c-0.02,0.07-0.09,0.27-0.24,0.27c-0.06,0-0.11-0.03-0.15-0.07c-0.04,0.2-0.12,0.53-0.22,0.86c-0.15,0.45-0.29,0.77-0.34,0.86
		c0.27,0.98,1.42,1.23,2.74,1.51c0.44,0.09,0.89,0.19,1.33,0.32c0.75,0.22,1.24,0.89,1.43,1.93c0.14,0.77,0.06,1.47,0.05,1.5
		l-0.01,0.07l-16.18,0.05l-0.01-0.07C130.52,49.87,130.44,49.18,130.57,48.41z M99.6,44.32c0.18-1.04,0.67-1.71,1.42-1.93
		c0.44-0.13,0.89-0.23,1.33-0.33c1.33-0.29,2.47-0.54,2.74-1.52c-0.05-0.09-0.19-0.41-0.34-0.86c-0.11-0.33-0.18-0.65-0.23-0.86
		c-0.04,0.04-0.09,0.07-0.15,0.07c-0.15,0-0.22-0.2-0.24-0.27c-0.18-0.53-0.35-1.58-0.35-1.95c0-0.27,0.17-0.39,0.31-0.42
		c-0.09-0.47-0.43-2.64,0.57-3.89c0.53-0.66,1.36-0.95,2.45-0.86l0.13,0.01c0.13-0.01,0.26-0.01,0.38-0.01
		c0.74,0,1.38,0.15,1.9,0.44c1.46,0.5,1.49,2.01,1.49,2.02l0.14,2.28c0.15,0.03,0.35,0.14,0.35,0.43c0,0.37-0.18,1.43-0.35,1.95
		c-0.02,0.07-0.09,0.27-0.24,0.27c-0.06,0-0.11-0.03-0.15-0.07c-0.04,0.2-0.12,0.53-0.23,0.86c-0.15,0.45-0.3,0.77-0.34,0.86
		c0.27,0.98,1.41,1.23,2.73,1.52c0.44,0.1,0.89,0.19,1.33,0.33c0.75,0.22,1.24,0.89,1.42,1.93c0.13,0.77,0.05,1.47,0.05,1.5
		l-0.01,0.07H99.56l-0.01-0.07C99.55,45.79,99.47,45.09,99.6,44.32z M107.77,50.15v15.95c-0.1,0-0.21-0.01-0.31-0.01
		c-0.1,0-0.21,0.01-0.31,0.01V50.15H107.77z M85.49,54.48l5.88,14.12l-0.59,0.21l-5.86-14.09L85.49,54.48z M68.71,48.45
		c0.16-1.04,0.64-1.72,1.39-1.95c0.43-0.14,0.89-0.24,1.32-0.35c1.32-0.31,2.46-0.58,2.71-1.57c-0.05-0.09-0.2-0.41-0.36-0.85
		c-0.11-0.32-0.19-0.65-0.24-0.85c-0.04,0.04-0.09,0.07-0.15,0.07c-0.15,0-0.22-0.2-0.24-0.26c-0.18-0.52-0.38-1.58-0.39-1.95
		c0-0.27,0.16-0.39,0.31-0.43c-0.1-0.47-0.48-2.63,0.51-3.9c0.52-0.67,1.34-0.97,2.43-0.9l0.13,0.01c0.13-0.01,0.26-0.02,0.38-0.02
		c0.74-0.01,1.38,0.12,1.91,0.41c1.47,0.48,1.52,1.98,1.52,2l0.18,2.28c0.15,0.02,0.36,0.13,0.36,0.42
		c0.01,0.37-0.16,1.43-0.32,1.96c-0.02,0.07-0.08,0.27-0.24,0.27c-0.06,0-0.11-0.03-0.15-0.07c-0.04,0.2-0.11,0.53-0.21,0.86
		c-0.14,0.45-0.28,0.77-0.33,0.87c0.28,0.98,1.43,1.21,2.76,1.47c0.44,0.09,0.9,0.18,1.34,0.3c0.75,0.21,1.26,0.87,1.45,1.91
		c0.15,0.77,0.08,1.47,0.07,1.49l-0.01,0.07l-16.18,0.27l-0.01-0.07C68.68,49.92,68.59,49.22,68.71,48.45z M66.72,66.9l11.85,11.85
		c-0.15,0.15-0.29,0.29-0.44,0.44L66.28,67.34L66.72,66.9z M49.53,108.4v-0.62h14.22l-0.02,0.62H49.53z M62.91,126.97l-8.81,3.67
		l-0.24-0.58l8.77-3.65L62.91,126.97z M63.51,90.31l-9.73-4.01l0.24-0.58l9.75,4.02L63.51,90.31z M45.27,64.65
		c0.18-1.04,0.67-1.71,1.42-1.93c0.44-0.13,0.89-0.23,1.33-0.33c1.33-0.29,2.47-0.54,2.74-1.52c-0.05-0.09-0.19-0.41-0.34-0.86
		c-0.11-0.33-0.18-0.65-0.23-0.86c-0.04,0.04-0.09,0.07-0.15,0.07c-0.15,0-0.22-0.2-0.24-0.27c-0.18-0.53-0.35-1.58-0.35-1.95
		c0-0.27,0.17-0.39,0.31-0.42c-0.09-0.47-0.43-2.64,0.57-3.89c0.53-0.66,1.36-0.95,2.45-0.86l0.13,0.01
		c0.13-0.01,0.26-0.01,0.38-0.01c0.74,0,1.38,0.15,1.9,0.44c1.46,0.5,1.49,2.01,1.49,2.02l0.14,2.28c0.15,0.03,0.35,0.14,0.35,0.43
		c0,0.37-0.18,1.43-0.36,1.95c-0.02,0.07-0.09,0.27-0.24,0.27c-0.06,0-0.11-0.03-0.15-0.07c-0.04,0.2-0.12,0.53-0.23,0.86
		c-0.15,0.45-0.3,0.77-0.34,0.86c0.27,0.98,1.41,1.23,2.73,1.52c0.44,0.1,0.89,0.19,1.33,0.33c0.75,0.22,1.24,0.89,1.42,1.93
		c0.13,0.77,0.05,1.47,0.05,1.5l-0.01,0.07H45.23l-0.01-0.07C45.22,66.11,45.14,65.42,45.27,64.65z M30.6,86.54
		c0.18-1.04,0.67-1.71,1.42-1.93c0.44-0.13,0.89-0.23,1.33-0.32c1.33-0.29,2.47-0.54,2.74-1.52c-0.05-0.09-0.19-0.41-0.34-0.86
		c-0.11-0.33-0.18-0.65-0.23-0.86c-0.04,0.04-0.09,0.07-0.15,0.07c-0.15,0-0.22-0.2-0.24-0.27c-0.18-0.53-0.35-1.58-0.35-1.95
		c0-0.27,0.17-0.39,0.31-0.42c-0.09-0.47-0.43-2.64,0.58-3.89c0.53-0.66,1.36-0.95,2.45-0.86l0.13,0.01
		c0.13-0.01,0.26-0.01,0.38-0.01c0.74,0,1.38,0.15,1.9,0.44c1.46,0.5,1.49,2.01,1.49,2.03l0.14,2.28c0.15,0.03,0.35,0.14,0.35,0.43
		c0,0.37-0.18,1.43-0.36,1.95c-0.02,0.07-0.09,0.27-0.24,0.27c-0.06,0-0.11-0.03-0.15-0.07c-0.04,0.2-0.12,0.53-0.23,0.86
		c-0.15,0.45-0.3,0.77-0.34,0.86c0.26,0.98,1.41,1.23,2.73,1.52c0.44,0.1,0.89,0.2,1.33,0.33c0.75,0.23,1.24,0.89,1.42,1.93
		c0.13,0.77,0.05,1.47,0.05,1.5l-0.01,0.07l-16.18-0.01l-0.01-0.07C30.54,88.01,30.46,87.32,30.6,86.54z M28.66,115.28l-0.01-0.07
		c0-0.03-0.08-0.72,0.05-1.5c0.18-1.04,0.67-1.71,1.42-1.93c0.44-0.13,0.89-0.23,1.33-0.33c1.33-0.29,2.47-0.54,2.74-1.52
		c-0.05-0.09-0.19-0.41-0.34-0.86c-0.11-0.33-0.18-0.65-0.23-0.86c-0.04,0.04-0.09,0.07-0.15,0.07c-0.15,0-0.22-0.2-0.24-0.27
		c-0.18-0.53-0.35-1.58-0.35-1.95c0-0.27,0.17-0.39,0.31-0.42c-0.09-0.47-0.43-2.64,0.57-3.89c0.53-0.66,1.36-0.95,2.45-0.86
		l0.13,0.01c0.13-0.01,0.26-0.01,0.38-0.01c0.74,0,1.38,0.15,1.9,0.44c1.46,0.5,1.49,2.01,1.49,2.02l0.14,2.28
		c0.15,0.03,0.35,0.14,0.35,0.43c0,0.37-0.18,1.43-0.36,1.95c-0.02,0.07-0.09,0.27-0.24,0.27c-0.06,0-0.11-0.03-0.15-0.07
		c-0.04,0.2-0.12,0.53-0.23,0.86c-0.15,0.45-0.3,0.77-0.34,0.86c0.27,0.98,1.41,1.23,2.73,1.52c0.44,0.1,0.89,0.19,1.33,0.33
		c0.75,0.22,1.24,0.89,1.42,1.93c0.13,0.77,0.05,1.47,0.05,1.5l-0.01,0.07H28.66z M50.43,142.3l-0.01,0.07l-16.18,0.06l-0.01-0.07
		c0-0.03-0.09-0.72,0.04-1.5c0.18-1.04,0.67-1.71,1.41-1.94c0.44-0.13,0.89-0.23,1.33-0.33c1.32-0.29,2.47-0.55,2.73-1.53
		c-0.05-0.09-0.19-0.41-0.34-0.86c-0.11-0.32-0.19-0.65-0.23-0.86c-0.04,0.04-0.09,0.07-0.15,0.07c-0.15,0-0.22-0.2-0.24-0.27
		c-0.18-0.53-0.36-1.58-0.36-1.95c0-0.27,0.17-0.39,0.31-0.42c-0.09-0.47-0.44-2.63,0.56-3.89c0.53-0.66,1.36-0.96,2.44-0.87
		l0.13,0.01c0.13-0.01,0.26-0.01,0.38-0.01c0.74,0,1.38,0.14,1.91,0.43c1.46,0.5,1.5,2,1.5,2.02l0.15,2.28
		c0.15,0.03,0.35,0.14,0.35,0.43c0,0.37-0.17,1.43-0.35,1.96c-0.02,0.07-0.09,0.27-0.24,0.27c-0.06,0-0.11-0.03-0.15-0.07
		c-0.04,0.2-0.12,0.53-0.22,0.86c-0.15,0.45-0.29,0.77-0.34,0.86c0.27,0.98,1.42,1.22,2.74,1.51c0.44,0.09,0.89,0.19,1.33,0.32
		c0.75,0.22,1.24,0.89,1.43,1.93C50.51,141.57,50.43,142.27,50.43,142.3z M67.15,164.08l-0.01,0.07H50.96l-0.01-0.07
		c0-0.03-0.08-0.72,0.05-1.5c0.18-1.04,0.67-1.71,1.42-1.93c0.44-0.13,0.89-0.23,1.33-0.33c1.32-0.29,2.47-0.54,2.73-1.52
		c-0.05-0.09-0.19-0.41-0.34-0.86c-0.11-0.33-0.18-0.65-0.23-0.86c-0.04,0.04-0.09,0.07-0.15,0.07c-0.15,0-0.22-0.2-0.24-0.27
		c-0.18-0.53-0.36-1.58-0.36-1.95c0-0.29,0.2-0.4,0.35-0.43l0.14-2.28c0-0.02,0.03-1.52,1.49-2.02c0.52-0.29,1.16-0.44,1.9-0.44
		c0.13,0,0.26,0,0.38,0.01l0.13-0.01c1.09-0.09,1.91,0.19,2.45,0.86c1.01,1.25,0.66,3.42,0.57,3.89c0.14,0.03,0.31,0.15,0.31,0.42
		c0,0.37-0.18,1.43-0.35,1.95c-0.02,0.07-0.09,0.27-0.24,0.27c-0.06,0-0.11-0.03-0.15-0.07c-0.04,0.2-0.12,0.53-0.23,0.86
		c-0.15,0.45-0.3,0.76-0.34,0.86c0.27,0.98,1.41,1.23,2.74,1.52c0.44,0.1,0.89,0.19,1.33,0.33c0.75,0.22,1.24,0.89,1.42,1.93
		C67.24,163.36,67.16,164.05,67.15,164.08z M66.72,149.27l-0.44-0.44l3.34-3.34l0.46,0.42L66.72,149.27z M88.33,179.24l-0.01,0.07
		l-16.18,0.09l-0.01-0.07c0-0.03-0.09-0.72,0.04-1.5c0.18-1.04,0.66-1.71,1.41-1.94c0.44-0.13,0.89-0.24,1.33-0.33
		c1.32-0.3,2.47-0.55,2.73-1.53c-0.05-0.09-0.19-0.41-0.35-0.86c-0.11-0.32-0.19-0.65-0.23-0.86c-0.04,0.04-0.09,0.07-0.15,0.07
		c-0.15,0-0.22-0.2-0.24-0.26c-0.18-0.53-0.36-1.58-0.37-1.95c0-0.29,0.2-0.4,0.35-0.43l0.13-2.28c0-0.02,0.02-1.52,1.48-2.03
		c0.52-0.29,1.16-0.44,1.9-0.45c0.13,0,0.26,0,0.38,0.01l0.13-0.01c1.09-0.1,1.92,0.18,2.45,0.84c1.01,1.25,0.68,3.41,0.59,3.88
		c0.14,0.03,0.31,0.15,0.32,0.42c0,0.37-0.17,1.43-0.34,1.96c-0.02,0.07-0.09,0.27-0.24,0.27c-0.06,0-0.11-0.03-0.15-0.07
		c-0.04,0.2-0.11,0.53-0.22,0.86c-0.15,0.45-0.29,0.77-0.34,0.86c0.27,0.98,1.42,1.22,2.75,1.51c0.44,0.09,0.89,0.19,1.33,0.32
		c0.75,0.22,1.25,0.89,1.43,1.92C88.41,178.51,88.34,179.21,88.33,179.24z M85.68,161.76l-0.58-0.24l5.67-13.76l0.55,0.3
		L85.68,161.76z M91.97,87.03h-5.4v7.13h5.4v6.24h-5.4v7.13h5.4v6.24h-5.4v7.13h5.4v6.24h-5.4v7.13h5.4v9.51H67.18V81.09h24.79
		V87.03z M115.75,184.6l-0.01,0.07H99.56l-0.01-0.07c0-0.03-0.08-0.72,0.05-1.5c0.18-1.04,0.67-1.71,1.42-1.93
		c0.44-0.13,0.89-0.23,1.33-0.33c1.33-0.29,2.47-0.54,2.74-1.52c-0.05-0.09-0.19-0.41-0.34-0.86c-0.11-0.33-0.18-0.65-0.23-0.86
		c-0.04,0.04-0.09,0.07-0.15,0.07c-0.15,0-0.22-0.2-0.24-0.27c-0.18-0.53-0.36-1.58-0.36-1.95c0-0.27,0.17-0.39,0.31-0.42
		c-0.09-0.47-0.43-2.64,0.57-3.89c0.53-0.66,1.36-0.95,2.45-0.86l0.13,0.01c0.13-0.01,0.26-0.01,0.38-0.01
		c0.74,0,1.38,0.15,1.9,0.44c1.46,0.5,1.49,2.01,1.49,2.02l0.14,2.28c0.15,0.03,0.35,0.14,0.35,0.43c0,0.37-0.18,1.43-0.35,1.95
		c-0.02,0.07-0.09,0.27-0.24,0.27c-0.06,0-0.11-0.03-0.15-0.07c-0.04,0.2-0.12,0.53-0.23,0.86c-0.15,0.45-0.3,0.77-0.34,0.86
		c0.27,0.98,1.41,1.23,2.73,1.52c0.44,0.1,0.89,0.19,1.33,0.33c0.75,0.22,1.24,0.89,1.42,1.93
		C115.84,183.87,115.76,184.57,115.75,184.6z M107.15,166.01v-15.51c0.1,0,0.21,0.01,0.31,0.01c0.1,0,0.21-0.01,0.31-0.01v15.51
		H107.15z M123.81,147.9h-11.75v-11.16h-5.5v11.16H94.81V68.25h29.01V147.9z M123.6,68.11l5.65-13.71l0.58,0.24l-5.64,13.68
		L123.6,68.11z M125.4,150.36l4.61,11.09l-0.57,0.24l-4.64-11.14L125.4,150.36z M143.36,179.32l-0.01,0.07l-16.18-0.05l-0.01-0.07
		c0-0.03-0.08-0.72,0.05-1.5c0.18-1.04,0.68-1.7,1.43-1.93c0.44-0.13,0.89-0.23,1.33-0.32c1.33-0.29,2.47-0.53,2.74-1.51
		c-0.04-0.09-0.19-0.41-0.34-0.86c-0.11-0.33-0.18-0.65-0.22-0.86c-0.04,0.04-0.09,0.07-0.15,0.07c-0.15,0-0.22-0.2-0.24-0.27
		c-0.17-0.53-0.35-1.58-0.35-1.96c0-0.27,0.17-0.39,0.31-0.42c-0.09-0.47-0.43-2.64,0.58-3.89c0.53-0.66,1.36-0.95,2.45-0.85
		l0.13,0.01c0.13-0.01,0.26-0.01,0.38-0.01c0.74,0,1.38,0.15,1.9,0.44c1.46,0.51,1.48,2.01,1.48,2.03l0.14,2.28
		c0.15,0.03,0.35,0.14,0.35,0.43c0,0.37-0.18,1.43-0.36,1.95c-0.02,0.07-0.09,0.27-0.24,0.27c-0.06,0-0.11-0.03-0.15-0.07
		c-0.04,0.2-0.12,0.53-0.23,0.86c-0.15,0.45-0.3,0.77-0.34,0.86c0.26,0.98,1.41,1.23,2.73,1.53c0.44,0.1,0.89,0.2,1.33,0.33
		c0.75,0.23,1.24,0.9,1.42,1.94C143.45,178.59,143.36,179.29,143.36,179.32z M145.46,146.53l0.44-0.44l2.74,2.74l-0.44,0.44
		L145.46,146.53z M164.82,164.27l-0.01,0.07h-16.18l-0.01-0.07c0-0.03-0.08-0.72,0.05-1.5c0.18-1.04,0.67-1.71,1.42-1.93
		c0.44-0.13,0.89-0.23,1.33-0.33c1.33-0.29,2.47-0.54,2.74-1.52c-0.05-0.09-0.19-0.41-0.34-0.86c-0.11-0.33-0.18-0.65-0.23-0.86
		c-0.04,0.04-0.09,0.07-0.15,0.07c-0.15,0-0.22-0.2-0.24-0.27c-0.18-0.53-0.35-1.58-0.35-1.95c0-0.27,0.17-0.39,0.31-0.42
		c-0.09-0.47-0.43-2.64,0.57-3.89c0.53-0.66,1.36-0.95,2.45-0.86l0.13,0.01c0.13-0.01,0.26-0.01,0.38-0.01
		c0.74,0,1.38,0.15,1.9,0.44c1.46,0.5,1.49,2.01,1.49,2.02l0.14,2.28c0.15,0.03,0.35,0.14,0.35,0.43c0,0.37-0.18,1.43-0.36,1.95
		c-0.02,0.07-0.09,0.27-0.24,0.27c-0.06,0-0.11-0.03-0.15-0.07c-0.04,0.2-0.12,0.53-0.23,0.86c-0.15,0.45-0.3,0.77-0.34,0.86
		c0.27,0.98,1.41,1.23,2.73,1.52c0.44,0.1,0.89,0.19,1.33,0.33c0.75,0.22,1.24,0.89,1.42,1.93
		C164.9,163.55,164.82,164.25,164.82,164.27z M180.14,142.41l-0.01,0.07l-16.18-0.07l-0.01-0.07c0-0.03-0.08-0.72,0.06-1.5
		c0.19-1.04,0.68-1.7,1.43-1.92c0.44-0.13,0.89-0.23,1.33-0.32c1.33-0.28,2.47-0.53,2.75-1.51c-0.04-0.09-0.19-0.41-0.34-0.86
		c-0.11-0.33-0.18-0.65-0.22-0.86c-0.04,0.04-0.09,0.07-0.15,0.07c-0.15,0-0.22-0.2-0.24-0.27c-0.17-0.53-0.35-1.58-0.35-1.96
		c0-0.27,0.17-0.39,0.31-0.42c-0.09-0.47-0.42-2.64,0.59-3.88c0.54-0.66,1.36-0.95,2.45-0.85l0.13,0.01
		c0.13-0.01,0.26-0.01,0.38-0.01c0.74,0,1.38,0.15,1.9,0.45c1.46,0.51,1.48,2.02,1.48,2.03l0.13,2.28c0.15,0.03,0.35,0.14,0.35,0.43
		c0,0.37-0.19,1.43-0.36,1.95c-0.02,0.07-0.09,0.27-0.24,0.26c-0.06,0-0.11-0.03-0.15-0.07c-0.04,0.2-0.12,0.53-0.23,0.86
		c-0.15,0.45-0.3,0.76-0.34,0.86c0.26,0.98,1.4,1.24,2.73,1.53c0.44,0.1,0.89,0.2,1.33,0.33c0.75,0.23,1.24,0.9,1.41,1.94
		C180.23,141.69,180.15,142.38,180.14,142.41z M186.26,115.28h-16.18l-0.01-0.07c0-0.03-0.08-0.72,0.05-1.5
		c0.18-1.04,0.67-1.71,1.42-1.93c0.44-0.13,0.89-0.23,1.33-0.33c1.33-0.29,2.47-0.54,2.74-1.52c-0.05-0.09-0.19-0.41-0.34-0.86
		c-0.11-0.33-0.18-0.65-0.23-0.86c-0.04,0.04-0.09,0.07-0.15,0.07c-0.15,0-0.22-0.2-0.24-0.27c-0.18-0.53-0.35-1.58-0.35-1.95
		c0-0.27,0.17-0.39,0.31-0.42c-0.09-0.47-0.43-2.64,0.57-3.89c0.53-0.66,1.36-0.95,2.45-0.86l0.13,0.01
		c0.13-0.01,0.26-0.01,0.38-0.01c0.74,0,1.38,0.15,1.9,0.44c1.46,0.5,1.49,2.01,1.49,2.02l0.14,2.28c0.15,0.03,0.35,0.14,0.35,0.43
		c0,0.37-0.18,1.43-0.36,1.95c-0.02,0.07-0.09,0.27-0.24,0.27c-0.06,0-0.11-0.03-0.15-0.07c-0.04,0.2-0.12,0.53-0.23,0.86
		c-0.15,0.45-0.3,0.77-0.34,0.86c0.27,0.98,1.41,1.23,2.73,1.52c0.44,0.1,0.89,0.19,1.33,0.33c0.75,0.22,1.24,0.89,1.42,1.93
		c0.13,0.77,0.05,1.47,0.05,1.5L186.26,115.28z"/>
</g>
</svg>
