<?xml version="1.0" encoding="utf-8"?>
<!-- Generator: Adobe Illustrator 23.0.1, SVG Export Plug-In . SVG Version: 6.00 Build 0)  -->
<svg version="1.1" id="Layer_1" xmlns="http://www.w3.org/2000/svg" xmlns:xlink="http://www.w3.org/1999/xlink" x="0px" y="0px"
	 viewBox="0 0 216 216" style="enable-background:new 0 0 216 216;" xml:space="preserve">
<style type="text/css">
	.st0{fill:#FFFFFF;}
</style>
<g>
	<rect x="118.22" y="109.51" class="st0" width="9.57" height="9.57"/>
	<rect x="118.22" y="124.82" class="st0" width="9.57" height="9.57"/>
	<rect x="118.22" y="94.2" class="st0" width="9.57" height="9.57"/>
	<rect x="102.91" y="78.89" class="st0" width="9.57" height="9.57"/>
	<rect x="118.22" y="140.13" class="st0" width="9.57" height="9.57"/>
	<rect x="102.91" y="94.2" class="st0" width="9.57" height="9.57"/>
	<rect x="118.22" y="78.89" class="st0" width="9.57" height="9.57"/>
	<rect x="133.52" y="140.13" class="st0" width="9.57" height="9.57"/>
	<rect x="133.52" y="78.89" class="st0" width="9.57" height="9.57"/>
	<polygon class="st0" points="110.26,37.74 104.8,37.74 104.8,43.24 99.3,43.24 99.3,48.71 104.8,48.71 104.8,54.2 110.26,54.2 
		110.26,48.71 115.76,48.71 115.76,43.24 110.26,43.24 	"/>
	<rect x="102.91" y="109.51" class="st0" width="9.57" height="9.57"/>
	<rect x="133.52" y="94.2" class="st0" width="9.57" height="9.57"/>
	<rect x="133.52" y="124.82" class="st0" width="9.57" height="9.57"/>
	<rect x="133.52" y="109.51" class="st0" width="9.57" height="9.57"/>
	<path class="st0" d="M107.69,3.61C50.1,3.61,3.41,50.3,3.41,107.9S50.1,212.18,107.69,212.18s104.29-46.69,104.29-104.29
		S165.29,3.61,107.69,3.61z M92.64,34.33h30.1v23.28h-30.1V34.33z M153.62,181.46h-38.27v-18.88h-15.31v18.88H61.76V61.29h91.85
		V181.46z"/>
	<rect x="72.29" y="109.51" class="st0" width="9.57" height="9.57"/>
	<rect x="87.6" y="140.13" class="st0" width="9.57" height="9.57"/>
	<rect x="72.29" y="78.89" class="st0" width="9.57" height="9.57"/>
	<rect x="72.29" y="94.2" class="st0" width="9.57" height="9.57"/>
	<rect x="72.29" y="124.82" class="st0" width="9.57" height="9.57"/>
	<rect x="72.29" y="140.13" class="st0" width="9.57" height="9.57"/>
	<rect x="87.6" y="94.2" class="st0" width="9.57" height="9.57"/>
	<rect x="87.6" y="124.82" class="st0" width="9.57" height="9.57"/>
	<rect x="102.91" y="140.13" class="st0" width="9.57" height="9.57"/>
	<rect x="87.6" y="78.89" class="st0" width="9.57" height="9.57"/>
	<rect x="102.91" y="124.82" class="st0" width="9.57" height="9.57"/>
	<rect x="87.6" y="109.51" class="st0" width="9.57" height="9.57"/>
</g>
</svg>
