<?xml version="1.0" encoding="utf-8"?>
<!-- Generator: Adobe Illustrator 23.0.1, SVG Export Plug-In . SVG Version: 6.00 Build 0)  -->
<svg version="1.1" xmlns="http://www.w3.org/2000/svg" xmlns:xlink="http://www.w3.org/1999/xlink" x="0px" y="0px"
	 viewBox="0 0 216 216" style="enable-background:new 0 0 216 216;" xml:space="preserve">
<style type="text/css">
	.st0{fill:#FFFFFF;}
</style>
<g id="Layer_1">
</g>
<g id="Layer_2">
</g>
<g id="Layer_3">
	<g>
		<path class="st0" d="M145.11,159.78H71.28c-2.03,0-3.68,1.65-3.68,3.68s1.65,3.68,3.68,3.68h73.83c2.03,0,3.68-1.65,3.68-3.68
			S147.14,159.78,145.11,159.78z"/>
		<path class="st0" d="M71.44,127.08h72.44c2.12,0,3.84-1.72,3.84-3.84v-19.38c0-2.12-1.72-3.84-3.84-3.84H71.44
			c-2.12,0-3.84,1.72-3.84,3.84v19.38C67.6,125.36,69.32,127.08,71.44,127.08z M73.84,120.24l13.97-7.17
			c0.77-0.4,1.69-0.37,2.44,0.06l10.13,5.88l12.97-11.26c0.62-0.54,1.45-0.74,2.25-0.56c0.8,0.19,1.45,0.74,1.77,1.49l1.92,4.56
			l19.79-10.9c1.23-0.68,2.78-0.23,3.46,1c0.68,1.23,0.23,2.78-1,3.46l-22.27,12.27c-0.63,0.35-1.38,0.41-2.07,0.18
			c-0.68-0.24-1.23-0.75-1.51-1.42l-1.66-3.93l-11.69,10.15c-0.82,0.71-2.01,0.83-2.95,0.28l-10.5-6.1l-12.73,6.54
			c-0.37,0.19-0.77,0.28-1.16,0.28c-0.93,0-1.82-0.51-2.27-1.38C72.1,122.42,72.59,120.89,73.84,120.24z"/>
		<path class="st0" d="M71.28,56.03h36.8c2.03,0,3.68-1.65,3.68-3.68s-1.65-3.68-3.68-3.68h-36.8c-2.03,0-3.68,1.65-3.68,3.68
			S69.24,56.03,71.28,56.03z"/>
		<path class="st0" d="M71.28,70.99h36.8c2.03,0,3.68-1.65,3.68-3.68s-1.65-3.68-3.68-3.68h-36.8c-2.03,0-3.68,1.65-3.68,3.68
			S69.24,70.99,71.28,70.99z"/>
		<path class="st0" d="M145.11,143.64H71.28c-2.03,0-3.68,1.65-3.68,3.68v0c0,2.03,1.65,3.68,3.68,3.68h73.83
			c2.03,0,3.68-1.65,3.68-3.68v0C148.79,145.28,147.14,143.64,145.11,143.64z"/>
		<path class="st0" d="M145.11,78.59H71.28c-2.03,0-3.68,1.65-3.68,3.68s1.65,3.68,3.68,3.68h73.83c2.03,0,3.68-1.65,3.68-3.68
			S147.14,78.59,145.11,78.59z"/>
		<path class="st0" d="M122.9,64.22c0,3.61,2.93,6.54,6.54,6.54h26.23L122.9,37.99V64.22z"/>
		<path class="st0" d="M108.67,0.5c-59.65,0-108,48.35-108,108c0,59.65,48.35,108,108,108c59.65,0,108-48.35,108-108
			C216.67,48.85,168.31,0.5,108.67,0.5z M159.71,174.26c0,4.46-3.61,8.07-8.07,8.07H65.7c-4.46,0-8.07-3.61-8.07-8.07V42.5
			c0-4.33,3.51-7.83,7.83-7.83h58.63l35.62,35.62V174.26z"/>
	</g>
</g>
</svg>
